PathFileType	4	(X/Y/Z)	C:\Users\dbl\Desktop\20210112\20210112\bx_n_0_1802.trc
DataRate	CameraRate	NumFrames	NumMarkers	Units	OrigDataRate	OrigDataStartFrame	OrigNumFrames
50.00	50.00	       4	43	mm	50.00	266	       425
Frame#	Time	Top.Head			R.Acromium			L.Acromium			Sternum			R.ASIS			L.ASIS			V.Sacral			R.Thigh.Upper			R.Thigh.Front			R.Thigh.Rear			R.Knee.Lat			R.Knee.Med			R.Shank.Upper			R.Shank.Front			R.Shank.Rear			R.Ankle.Lat			R.Midfoot.Lat			R.Toe.Lat			R.Toe.Tip			R.Toe.Med			R.Ankle.Med			R.Midfoot.Sup			R.Heel			L.Thigh.Upper			L.Thigh.Front			L.Thigh.Rear			L.Knee.Lat			L.Knee.Med			L.Shank.Upper			L.Shank.Front			L.Shank.Rear			L.Ankle.Lat			L.Midfoot.Lat			L.Toe.Lat			L.Toe.Tip			L.Toe.Med			L.Ankle.Med			L.Midfoot.Sup			L.Heel			origin1 front left			origin2 front right			origin 3 back right			origin 4 back leftt			
		X1	Y1	Z1	X2	Y2	Z2	X3	Y3	Z3	X4	Y4	Z4	X5	Y5	Z5	X6	Y6	Z6	X7	Y7	Z7	X8	Y8	Z8	X9	Y9	Z9	X10	Y10	Z10	X11	Y11	Z11	X12	Y12	Z12	X13	Y13	Z13	X14	Y14	Z14	X15	Y15	Z15	X16	Y16	Z16	X17	Y17	Z17	X18	Y18	Z18	X19	Y19	Z19	X20	Y20	Z20	X21	Y21	Z21	X22	Y22	Z22	X23	Y23	Z23	X24	Y24	Z24	X25	Y25	Z25	X26	Y26	Z26	X27	Y27	Z27	X28	Y28	Z28	X29	Y29	Z29	X30	Y30	Z30	X31	Y31	Z31	X32	Y32	Z32	X33	Y33	Z33	X34	Y34	Z34	X35	Y35	Z35	X36	Y36	Z36	X37	Y37	Z37	X38	Y38	Z38	X39	Y39	Z39	X40	Y40	Z40	X41	Y41	Z41	X42	Y42	Z42	X43	Y43	Z43	

266	5.300	-391.19000	124.56673	1268.59595	-501.66782	-52.90145	1002.41687	-490.07953	293.12433	994.92230	-582.74390	111.30488	804.90332	-846.80493	20.91338	714.03186	-837.25757	257.51880	691.37830	-1023.48456	120.77271	731.53680	-821.31488	-64.11552	644.52399	-734.12421	9.42831	699.68176	-715.92645	-53.73534	603.74011	-582.04718	-25.82370	551.86676	-550.44476	91.23280	540.04956	-565.07281	-24.53113	519.08484	-521.09680	27.71310	469.34259	-631.48975	-32.47746	459.22913	-744.36670	-6.79898	211.54575	-648.19751	-59.37841	170.62094	-608.42462	-63.96383	172.30360	-552.54004	-32.95580	169.73820	-596.93140	25.99839	164.89198	-669.78998	58.10324	150.59021	-702.38263	82.28640	204.18277	-787.73895	52.04327	177.93231	-823.75378	303.52023	605.46765	-708.00958	233.52536	683.71069	-689.40894	293.04681	581.43829	-591.08813	268.69489	542.34863	-523.79236	153.31810	538.47760	-556.89874	266.05005	515.65485	-507.17139	215.29791	477.95187	-613.79932	269.12634	460.98401	-750.80975	220.00159	207.81606	-653.66711	290.05002	158.60654	-619.21771	298.60379	159.60028	-551.27386	250.45564	165.45366	-586.45526	211.61188	173.70015	-670.99805	164.63681	151.79930	-694.53625	145.33215	205.32967	-786.21570	167.44162	190.65112	-528.16357	304.23291	146.64198	-517.82538	-72.72963	143.27481	-875.87128	-78.55782	141.24420	-882.50140	296.12527	144.73521	
267	5.320	-391.64862	124.49318	1268.67737	-501.88531	-52.90878	1002.25983	-490.51120	292.98825	995.02911	-583.13916	111.39404	804.54608	-847.18848	20.80705	714.79065	-837.63525	257.63785	691.60931	-1023.69611	120.72140	731.59039	-821.73254	-64.08832	644.91077	-734.55566	9.51834	699.87537	-716.16901	-53.61087	603.85132	-582.35382	-25.67792	551.92255	-550.75916	91.36866	540.12512	-565.30951	-24.31824	519.25385	-521.38239	27.85583	469.52399	-631.69617	-32.52989	459.35782	-744.36407	-6.82873	211.57277	-648.17902	-59.35173	170.63531	-608.41656	-63.93443	172.25470	-552.54138	-32.96894	169.74667	-596.96057	25.98591	164.89906	-669.79401	58.14426	150.63406	-702.39240	82.30162	204.16290	-787.77539	52.02583	177.92102	-824.08972	303.43680	605.56836	-708.52710	233.47363	683.89227	-689.75024	292.99994	581.69312	-591.38263	268.59668	542.52582	-524.16315	153.07553	538.78088	-557.25214	265.90775	515.88617	-507.54010	214.96875	478.23956	-614.03821	269.05698	461.30096	-750.82800	220.00346	207.83740	-653.67310	290.03879	158.62263	-619.21777	298.58844	159.57448	-551.31470	250.40117	165.44882	-586.50842	211.58119	173.73392	-670.94073	164.54549	151.89354	-694.57458	145.31564	205.30959	-786.24432	167.44902	190.56595	-528.16327	304.15747	146.61221	-517.81750	-72.74348	143.23868	-875.84753	-78.53307	141.23428	-882.48114	296.09650	144.72452	
268	5.340	-392.15775	124.52683	1268.79053	-502.08707	-53.03118	1002.16229	-490.90982	292.89008	995.18091	-583.53955	111.47746	804.21289	-847.53125	20.68851	715.64600	-837.97729	257.74542	691.94977	-1023.97095	120.59969	731.79535	-822.20923	-64.09876	645.37463	-734.85889	9.64175	699.97040	-716.36969	-53.69697	604.01276	-582.69061	-25.72888	552.07007	-551.03943	91.30484	540.27740	-565.52094	-24.28245	519.36511	-521.72473	27.78549	469.60812	-631.95563	-32.79368	459.48325	-744.37280	-6.83507	211.56276	-648.19336	-59.37327	170.62140	-608.45978	-63.98019	172.16542	-552.53156	-32.96683	169.73787	-596.98425	25.94762	164.91554	-669.79443	58.14835	150.66943	-702.39429	82.30431	204.15918	-787.81421	52.00381	177.94606	-824.49689	303.40445	605.76978	-708.92664	233.45818	684.12000	-690.02405	292.99500	581.91968	-591.82385	268.29419	542.49811	-524.57416	152.95418	539.04688	-557.56122	265.87033	516.18121	-507.90326	214.79672	478.44061	-614.28455	269.11072	461.54654	-750.84216	220.02222	207.84435	-653.67413	290.03622	158.62271	-619.23431	298.59039	159.52876	-551.33252	250.39108	165.45766	-586.54675	211.58560	173.76907	-670.97314	164.53760	151.93549	-694.59473	145.32416	205.29025	-786.26862	167.45540	190.48537	-528.17499	304.08142	146.57678	-517.79987	-72.76917	143.23654	-875.82355	-78.51392	141.20306	-882.48810	296.07852	144.71262	
269	5.360	-392.73184	124.63066	1268.95959	-502.29462	-53.29805	1002.14679	-491.26416	292.84161	995.37213	-583.94257	111.55515	803.91321	-847.83276	20.55801	716.59668	-838.28320	257.84134	692.39905	-1024.35645	120.37327	732.08752	-822.63916	-64.15286	645.73206	-735.08051	9.72377	699.99512	-716.56274	-53.89480	604.16455	-583.01154	-25.93313	552.30176	-551.23596	91.08797	540.54803	-565.75916	-24.41830	519.43903	-522.05725	27.56719	469.64795	-632.21869	-33.12994	459.56812	-744.40265	-6.83097	211.52603	-648.22766	-59.43031	170.57376	-608.52588	-64.06499	172.06284	-552.52271	-32.95404	169.72560	-597.00629	25.89717	164.94499	-669.78381	58.16028	150.71167	-702.38647	82.28589	204.18103	-787.85486	51.98098	177.99489	-824.96313	303.39343	606.03186	-709.19275	233.42427	684.31256	-690.31537	292.91458	582.06549	-592.42719	267.71960	542.29956	-524.98993	152.92151	539.21704	-557.83618	265.89771	516.50409	-508.26819	214.83385	478.56570	-614.53003	269.26385	461.71042	-750.86658	220.04980	207.84500	-653.66949	290.03223	158.62653	-619.25342	298.60556	159.49843	-551.34052	250.41284	165.47748	-586.58276	211.62338	173.80312	-671.12549	164.67651	151.89636	-694.59833	145.35696	205.29051	-786.30554	167.46431	190.43228	-528.18542	304.02185	146.55711	-517.79089	-72.79738	143.25560	-875.82080	-78.51717	141.17993	-882.52014	296.07800	144.70143	
